<svg width="74" height="113" viewBox="0 0 74 113" fill="none" xmlns="http://www.w3.org/2000/svg">
<path d="M42.4157 111.766L36.551 100.732L41.2742 87.1134V78.769L26.8423 87.1134V95.4446L33.048 106.203C33.147 106.369 33.2932 106.501 33.4679 106.583L42.4157 111.766Z" fill="#90B8F8"/>
<path opacity="0.3" d="M42.4157 111.766L36.551 100.732L41.2742 87.1134V78.769L26.8423 87.1134V95.4446L33.048 106.203C33.147 106.369 33.2932 106.501 33.4679 106.583L42.4157 111.766Z" fill="black"/>
<path d="M73.1962 10.6111C73.1151 9.10794 72.6807 7.64509 71.9285 6.34119C71.1763 5.0373 70.1273 3.92908 68.8666 3.10643L65.3373 1.07284C63.9951 0.393771 62.5119 0.0399475 61.0077 0.0399475C59.5035 0.0399475 58.0203 0.393771 56.6781 1.07284L4.80163 30.9733C3.54097 31.796 2.49197 32.9042 1.73972 34.2081C0.987478 35.512 0.553169 36.9748 0.472027 38.478V102.044C0.553169 103.547 0.987478 105.01 1.73972 106.314C2.49197 107.618 3.54097 108.726 4.80163 109.549L8.33091 111.583C9.67314 112.262 11.1563 112.615 12.6605 112.615C14.1647 112.615 15.6479 112.262 16.9901 111.583L35.896 100.706L42.0887 111.451C42.1784 111.604 42.3098 111.728 42.4674 111.808C42.6249 111.889 42.8022 111.923 42.9784 111.906C43.1546 111.89 43.3224 111.823 43.4623 111.715C43.6021 111.607 43.7082 111.46 43.768 111.294L50.328 92.388L68.8797 81.6952C70.1404 80.8726 71.1894 79.7644 71.9416 78.4605C72.6939 77.1566 73.1282 75.6937 73.2093 74.1906L73.1962 10.6111Z" fill="#90B8F8"/>
<path opacity="0.3" d="M0.471051 102.044C0.552193 103.547 0.986502 105.01 1.73875 106.314C2.49099 107.618 3.54 108.726 4.80065 109.549L8.32993 111.582C9.54341 112.191 10.8717 112.538 12.2282 112.599C13.5846 112.66 14.9386 112.434 16.2019 111.936C14.1683 112.697 12.6202 111.556 12.6202 109.089V46.6906C12.6202 44.1585 12.5152 42.2954 13.3024 40.931L1.69121 34.2004C0.899815 35.4925 0.448457 36.9639 0.379211 38.4775L0.471051 102.044Z" fill="black"/>
<path opacity="0.3" d="M73.0509 9.37736C72.5523 7.54056 70.873 6.95016 68.8656 8.06536L16.976 37.979C15.5377 38.627 14.2906 39.6347 13.3549 40.9047L1.74369 34.1742C2.46788 32.8531 3.52084 31.7414 4.80065 30.9466L56.664 1.03304C58.0085 0.353852 59.4938 0 61.0002 0C62.5065 0 63.9918 0.353852 65.3363 1.03304L68.8656 3.07976C69.9572 3.78699 70.892 4.71088 71.6119 5.79416C72.3318 6.87744 72.8216 8.09704 73.0509 9.37736Z" fill="white"/>
<path d="M19.823 72.5764C19.823 80.619 22.1846 86.8247 26.383 90.0522C30.5814 93.2798 36.3149 93.1354 42.3501 89.6455C48.3853 86.1556 54.0531 79.753 58.3171 71.6055C62.4602 63.872 64.7085 55.2656 64.8771 46.4938C64.8771 38.4513 62.5287 32.2455 58.3171 29.018L58.1466 28.8868L57.7923 28.6375C53.5939 25.8167 48.1098 26.0922 42.3501 29.4116C36.4067 32.8884 30.752 39.291 26.5011 47.3598V47.4647L26.1994 48.0289C22.2095 55.6102 20.0271 64.0117 19.823 72.5764ZM39.9622 34.2529C40.4608 33.8855 40.9594 33.5313 41.471 33.2033L41.6547 33.0983V46.9137C40.7639 47.4155 39.8389 47.8539 38.8864 48.2257L38.4535 48.3831C36.9965 48.9081 35.4624 49.1874 33.9139 49.2097C34.3075 47.4385 34.7536 45.7198 35.2259 44.0798C36.1963 40.5442 37.8011 37.2145 39.9622 34.2529ZM34.2288 43.5943C33.6778 45.3655 33.1923 47.2286 32.7725 49.1441H32.1952H31.8016C30.6862 48.9462 29.6126 48.5603 28.6266 48.0026C30.8032 43.9283 33.5857 40.2079 36.879 36.9687C35.8227 39.1041 34.9366 41.3195 34.2288 43.5943ZM43.216 47.8846C44.2325 47.2299 45.2094 46.5158 46.1418 45.746C46.2861 45.641 46.4304 45.5098 46.601 45.3655C48.2714 43.9063 49.8203 42.3135 51.2323 40.603C52.13 44.5541 52.5703 48.5954 52.5443 52.6471L43.216 58.0788V47.8846ZM52.6099 54.7463C52.5693 59.2806 52.1302 63.8025 51.2979 68.2599C49.731 68.2137 48.1669 68.422 46.6666 68.8766L46.2074 69.0078C45.2024 69.3496 44.2244 69.7663 43.2816 70.2542V60.1649L52.6099 54.7463ZM41.6547 71.0938C40.6266 71.7023 39.6364 72.3726 38.6896 73.1012L38.2304 73.4686C36.5274 74.8562 34.9432 76.3834 33.4941 78.0343C32.6498 74.2519 32.21 70.3904 32.1821 66.515L41.6154 61.0702L41.6547 71.0938ZM32.2214 64.4289C32.2823 60.0261 32.7213 55.6366 33.5334 51.3089C35.1501 51.259 36.7487 50.9534 38.2698 50.4036L38.729 50.233C39.7492 49.8357 40.7401 49.3665 41.6941 48.8292V58.971L32.2214 64.4289ZM44.8691 31.419C46.6272 31.5895 48.241 33.0458 49.5792 35.801C50.0582 36.8331 50.4616 37.8987 50.7862 38.9892C49.4363 40.6428 47.9532 42.183 46.3517 43.5943L45.9056 43.9617C45.0669 44.6684 44.191 45.3298 43.2816 45.9428V32.193L43.4259 32.1143C43.872 31.8519 44.3706 31.6289 44.8691 31.419ZM47.9523 30.4743C50.6357 29.8574 53.4536 30.2942 55.8243 31.6945C54.9261 33.2927 53.9451 34.8429 52.8855 36.339L52.4919 36.8769C52.3213 37.113 52.1507 37.323 51.967 37.5591C51.6215 36.3888 51.1828 35.2481 50.655 34.1479C50.0168 32.7503 49.0967 31.4996 47.9523 30.4743ZM56.8346 32.4292C60.3638 35.2106 62.3843 40.3012 62.568 46.8612L53.8432 51.9386C53.8552 47.6507 53.3709 43.3757 52.4 39.1991C52.6493 38.8711 52.9117 38.5562 53.161 38.2151L53.5677 37.651C54.7545 35.9736 55.8453 34.2302 56.8346 32.4292ZM62.5549 48.9998C62.2128 56.3306 60.2645 63.4968 56.8477 69.9918C55.8342 69.332 54.7163 68.8485 53.5415 68.5617L53.1347 68.4698C52.883 68.422 52.629 68.387 52.3738 68.3649C53.2835 63.6372 53.7752 58.8386 53.8432 54.0247L62.5549 48.9998ZM55.785 71.9598C53.6682 75.7327 51.0167 79.1796 47.913 82.1934C48.9711 80.0257 49.8487 77.7746 50.537 75.4628C51.0355 73.8884 51.4685 72.2353 51.849 70.5428C52.0327 70.5428 52.2032 70.5428 52.3738 70.6084L52.7674 70.7002C53.8329 70.9599 54.8511 71.3849 55.785 71.9598ZM44.8691 84.8174C44.3706 85.1847 43.872 85.539 43.3735 85.8538L43.216 85.9588V72.209C44.0614 71.7645 44.9384 71.383 45.84 71.0676L46.273 70.9364C47.7145 70.5072 49.2184 70.3253 50.7207 70.3985C50.3664 71.986 49.9597 73.521 49.5136 74.9905C48.5641 78.517 46.9911 81.845 44.8691 84.8174ZM39.9622 87.6513C38.2042 87.4807 36.5904 86.0113 35.2653 83.2561C34.7317 82.0997 34.2929 80.9018 33.9533 79.6743C35.3365 78.0807 36.8554 76.6102 38.4928 75.2791L38.9258 74.9249C39.8069 74.2401 40.7316 73.6134 41.6941 73.0487V86.851L41.5104 86.9559C40.9594 87.2183 40.4608 87.4414 39.9622 87.6513ZM36.879 88.5828C35.4724 88.9127 34.0134 88.9537 32.5904 88.7034C31.1674 88.4531 29.81 87.9166 28.6003 87.1265C29.5787 85.4516 30.6474 83.831 31.8016 82.2721L32.1952 81.7604L32.7725 81.0519C33.1485 82.4019 33.6356 83.7183 34.2288 84.9879C34.8592 86.3536 35.7609 87.5767 36.879 88.5828ZM27.5638 86.3262C24.4282 83.5841 22.4733 78.7166 22.3158 72.2615L31.0275 67.2234C31.0258 71.3173 31.4657 75.3993 32.3395 79.3988C32.0771 79.7268 31.8147 80.0286 31.5523 80.3697L31.1325 80.9076C29.8394 82.6434 28.6478 84.4526 27.5638 86.3262ZM22.3158 70.1754C22.636 63.1135 24.4516 56.2 27.6426 49.8919C28.743 50.5315 29.946 50.9754 31.1981 51.2039H31.6048C31.8672 51.2039 32.1296 51.2039 32.392 51.2039C31.5627 55.7722 31.1237 60.4028 31.08 65.0455L22.3158 70.1754Z" fill="white"/>
</svg>
