<svg width="194" height="215" viewBox="0 0 194 215" fill="none" xmlns="http://www.w3.org/2000/svg">
<path d="M110.44 144.624C109.338 143.495 108.984 141.646 109.627 139.376C110.479 136.903 111.9 134.665 113.775 132.842C115.651 131.019 117.928 129.662 120.424 128.88C122.747 128.289 124.596 128.696 125.672 129.824L191.561 192.21C193.28 193.758 193.883 196.422 192.873 199.82C191.049 206.275 184.306 212.861 177.798 214.514C174.387 215.38 171.724 214.711 170.228 212.953L110.44 144.624Z" fill="#90B8F8"/>
<path opacity="0.15" d="M110.44 144.624C109.338 143.495 108.984 141.646 109.627 139.376C110.479 136.903 111.9 134.665 113.775 132.842C115.651 131.019 117.928 129.662 120.424 128.88C122.747 128.289 124.596 128.696 125.672 129.824L191.561 192.21C193.28 193.758 193.883 196.422 192.873 199.82C191.049 206.275 184.306 212.861 177.798 214.514C174.387 215.38 171.724 214.711 170.228 212.953L110.44 144.624Z" fill="black"/>
<path d="M120.372 128.814C125.016 127.633 127.745 130.428 126.433 135.046C125.584 137.519 124.166 139.757 122.292 141.58C120.419 143.403 118.143 144.76 115.649 145.542C110.991 146.723 108.275 143.928 109.574 139.31C110.426 136.837 111.847 134.599 113.723 132.776C115.598 130.953 117.876 129.596 120.372 128.814Z" fill="#90B8F8"/>
<g opacity="0.25">
<path opacity="0.25" d="M120.372 128.814C125.016 127.633 127.745 130.428 126.433 135.046C125.584 137.519 124.166 139.757 122.292 141.58C120.419 143.403 118.143 144.76 115.649 145.542C110.991 146.723 108.275 143.928 109.574 139.31C110.426 136.837 111.847 134.599 113.723 132.776C115.598 130.953 117.876 129.596 120.372 128.814Z" fill="black"/>
</g>
<path d="M91.9146 117.007C92.4271 115.505 93.2892 114.146 94.4296 113.042C95.5701 111.938 96.9565 111.12 98.4746 110.657C99.0079 110.458 99.5849 110.405 100.146 110.504C100.706 110.603 101.23 110.851 101.663 111.221L122.655 132.698C123.014 133.14 123.249 133.67 123.334 134.233C123.419 134.796 123.352 135.371 123.14 135.9C122.628 137.402 121.766 138.761 120.625 139.865C119.485 140.969 118.098 141.786 116.58 142.25C116.047 142.449 115.47 142.502 114.909 142.402C114.348 142.303 113.825 142.056 113.392 141.686L92.4 120.208C92.0406 119.766 91.806 119.237 91.7207 118.674C91.6353 118.111 91.7022 117.535 91.9146 117.007Z" fill="#37474F"/>
<path d="M98.4352 110.656C98.0583 110.753 97.6898 110.881 97.3331 111.037L97.1626 111.128C96.8485 111.275 96.542 111.437 96.2442 111.614H96.1786C94.1757 112.839 92.6666 114.729 91.9146 116.954C91.7022 117.482 91.6353 118.058 91.7207 118.621C91.806 119.184 92.0406 119.713 92.4 120.155L97.425 125.298C99.2402 124.109 100.932 122.742 102.476 121.218L121.028 139.336C121.98 138.35 122.69 137.155 123.101 135.847C123.313 135.318 123.38 134.743 123.295 134.18C123.209 133.617 122.975 133.087 122.615 132.645L101.623 111.168C101.186 110.806 100.659 110.568 100.099 110.478C99.5384 110.389 98.9641 110.45 98.4352 110.656Z" fill="#455A64"/>
<path d="M124.334 139.179L190.839 204.189C191.717 202.792 192.401 201.282 192.873 199.702C193.831 196.317 193.227 193.64 191.495 192.092L125.633 129.706C126.735 130.848 127.076 132.685 126.433 134.954C125.975 136.47 125.266 137.898 124.334 139.179Z" fill="#90B8F8"/>
<path d="M29.5945 155.067C40.2217 161.207 54.9161 160.315 71.1587 150.948C103.618 132.199 129.936 86.6596 129.936 49.1364C129.936 30.4011 123.376 17.2286 112.723 11.0884L100.784 4.17418C90.1433 -1.9791 75.4489 -1.07381 59.2195 8.28075C26.7606 27.0292 0.441895 72.5687 0.441895 110.092C0.441895 128.84 7.00189 142.013 17.6553 148.14L29.5945 155.054V155.067ZM121.894 49.1364C121.894 65.8775 116.16 85.0196 105.756 103.047C95.352 121.073 81.576 135.61 67.144 143.981C54.024 151.551 42.1373 153.021 33.6224 148.101C25.1075 143.181 20.4237 132.147 20.4237 117.006C20.4237 100.265 26.1571 81.123 36.5613 63.0961C46.9654 45.0692 60.6889 30.5323 75.1865 22.1617C88.3065 14.5915 100.193 13.1351 108.708 18.042C117.223 22.9489 121.894 33.9959 121.894 49.1364Z" fill="#90B8F8"/>
<path opacity="0.3" d="M71.1587 15.195C38.6867 33.9435 12.3811 79.483 12.3811 117.006C12.3811 154.529 38.6867 169.683 71.1587 150.948C103.631 132.212 129.936 86.6596 129.936 49.1364C129.936 11.6132 103.618 -3.54038 71.1587 15.195ZM108.695 18.042C117.21 22.962 121.894 33.9959 121.894 49.1364C121.894 65.8775 116.16 85.0196 105.756 103.047C95.352 121.073 81.576 135.61 67.144 143.981C54.024 151.551 42.1373 153.007 33.6224 148.101C25.1075 143.194 20.4237 132.147 20.4237 117.006C20.4237 100.265 26.1571 81.123 36.5613 63.0961C46.9654 45.0692 60.689 30.5323 75.1866 22.1617C88.2803 14.539 100.193 13.1351 108.695 18.042Z" fill="white"/>
<path opacity="0.1" d="M12.3811 117.006C12.3811 92.3931 23.7168 64.3163 40.6809 42.6158L40.5366 42.7863L28.6368 35.8852C11.7382 57.5463 0.441895 85.5575 0.441895 110.092C0.441895 128.84 7.00189 142.013 17.6553 148.14L29.5814 155.054L30.2243 155.408C19.2166 149.439 12.3811 136.109 12.3811 117.006Z" fill="black"/>
<path d="M108.708 18.042C105.234 16.0932 101.302 15.1101 97.32 15.195C100.613 20.9022 102.345 28.6036 102.332 37.827C102.332 54.555 96.6115 73.7102 86.2074 91.7502C75.8032 109.79 62.0403 124.301 47.5427 132.619C39.5658 137.237 32.0218 139.586 25.4224 139.612C27.3517 143.106 30.1777 146.023 33.6093 148.061C42.1242 152.981 54.024 151.512 67.144 143.942C81.576 135.571 95.352 121.034 105.756 103.02C116.16 85.0065 121.894 65.8251 121.894 49.0971C121.907 33.9959 117.21 22.9489 108.708 18.042Z" fill="#90B8F8"/>
<path opacity="0.1" d="M108.708 18.042C105.234 16.0932 101.302 15.1101 97.32 15.195C100.613 20.9022 102.345 28.6036 102.332 37.827C102.332 54.555 96.6115 73.7102 86.2074 91.7502C75.8032 109.79 62.0403 124.301 47.5427 132.619C39.5658 137.237 32.0218 139.586 25.4224 139.612C27.3517 143.106 30.1777 146.023 33.6093 148.061C42.1242 152.981 54.024 151.512 67.144 143.942C81.576 135.571 95.352 121.034 105.756 103.02C116.16 85.0065 121.894 65.8251 121.894 49.0971C121.907 33.9959 117.21 22.9489 108.708 18.042Z" fill="black"/>
<path opacity="0.4" d="M113.064 44.0065C113.064 60.7476 107.331 79.9028 96.9264 97.9297C86.5223 115.957 72.7987 130.494 58.3011 138.864C47.4903 145.109 37.4928 147.182 29.5552 144.952C23.6512 139.192 20.4499 129.496 20.4499 117.006C20.4499 100.265 26.1833 81.123 36.5875 63.0961C46.9917 45.0692 60.7152 30.5323 75.2128 22.1617C86.0368 15.9166 96.0211 13.8436 103.972 16.0609C109.823 21.8337 113.064 31.5163 113.064 44.0065Z" fill="white"/>
<path opacity="0.1" d="M114.665 12.3086L115.36 12.8203L114.232 12.0199L113.772 11.705L114.35 12.0855L114.665 12.3086Z" fill="black"/>
<path opacity="0.1" d="M115.583 12.9777C115.758 13.102 115.925 13.2379 116.082 13.3844L115.386 12.8465L115.583 12.9777Z" fill="black"/>
<path opacity="0.1" d="M118.64 15.6542L117.604 14.6702C117.83 14.8579 118.045 15.0594 118.246 15.2737L118.64 15.6542Z" fill="black"/>
</svg>
